PathFileType	4	(X/Y/Z)	c:/Users/goper/Files/vsCode/490R/osim_files/C03/C03_SSW_04.trc
DataRate	CameraRate	NumFrames	NumMarkers	Units                	OrigDataRate	OrigDataStartFrame	OrigNumFrames
250.00	250.00	6	36	mm	250.0	1315	2629
                Frame#	Time	LPSIS			LASIS			LTH1			LTH2			LTH3			LTH4			LLFE			LMFE			LSH1			LSH2			LSH3			LSH4			LLMAL			LMMAL			LCAL			LMTP5			LTOE			LMTP1			RPSIS			RASIS			RTH1			RTH2			RTH3			RTH4			RLFE			RMFE			RSH1			RSH2			RSH3			RSH4			RLMAL			RMMAL			RCAL			RMTP1			RTOE			RMTP5		
		X1	Y1	Z1	X2	Y2	Z2	X3	Y3	Z3	X4	Y4	Z4	X5	Y5	Z5	X6	Y6	Z6	X7	Y7	Z7	X8	Y8	Z8	X9	Y9	Z9	X10	Y10	Z10	X11	Y11	Z11	X12	Y12	Z12	X13	Y13	Z13	X14	Y14	Z14	X15	Y15	Z15	X16	Y16	Z16	X17	Y17	Z17	X18	Y18	Z18	X19	Y19	Z19	X20	Y20	Z20	X21	Y21	Z21	X22	Y22	Z22	X23	Y23	Z23	X24	Y24	Z24	X25	Y25	Z25	X26	Y26	Z26	X27	Y27	Z27	X28	Y28	Z28	X29	Y29	Z29	X30	Y30	Z30	X31	Y31	Z31	X32	Y32	Z32	X33	Y33	Z33	X34	Y34	Z34	X35	Y35	Z35	X36	Y36	Z36

1315	5.25600	408.97195	1043.68066	319.46933	230.96748	987.17719	352.72495	347.60303	634.40063	392.45526	345.84201	573.28040	382.57184	272.56589	634.35004	382.13342	279.67422	574.46814	373.13077	324.81390	488.67773	365.94006	336.48151	488.76163	253.67589	389.15146	305.37698	365.87039	383.57758	259.81754	358.66406	327.91815	310.58932	368.25076	331.19931	262.57278	360.97775	340.77179	103.25122	324.31168	326.06613	116.73951	246.72742	408.96970	68.87148	294.20691	204.87534	54.31150	335.70285	176.97041	69.56931	280.31900	202.53140	58.20767	240.81573	407.26895	1033.28235	206.32774	236.54694	991.14386	148.73367	249.99638	609.01599	138.78505	228.17514	551.81757	150.86847	198.19254	626.77820	103.94198	168.23331	572.73529	109.14609	161.54510	503.94623	122.42139	142.93593	518.69049	236.47083	345.28082	421.53922	136.94818	373.71741	383.98877	139.26093	305.97269	378.82016	114.31326	338.47882	351.03787	119.26003	445.56107	240.12485	147.52275	419.74130	223.57457	222.98474	516.59595	252.84100	196.69250	373.70056	101.71770	204.15665	347.08969	102.49219	163.67641	413.00449	118.44569	107.11177
1316	5.26000	404.30908	1043.95276	318.68964	226.86453	986.99927	353.37119	344.58643	634.83411	392.21765	342.88867	573.57336	382.21851	269.53052	634.42743	382.07245	276.59122	574.51056	372.91306	322.39249	488.96176	365.57449	333.91483	489.15036	253.48700	387.76355	306.03296	365.92429	381.93787	260.19077	357.89297	326.52261	310.87421	368.09076	330.06699	262.82706	360.57742	340.41623	103.54113	324.13104	325.66946	116.90546	246.51271	408.87079	69.17064	294.10507	204.77036	54.27168	335.69806	176.82097	69.41035	280.32269	202.40303	58.13442	240.80904	402.07770	1033.62854	205.54124	230.95847	991.83862	149.00903	241.67278	610.25458	138.27547	219.45367	553.23840	150.47672	189.66391	628.63043	103.95014	159.27383	574.76953	109.41517	152.24033	505.99084	122.99296	134.23895	521.01898	236.96388	334.68753	420.29590	137.11740	362.75452	381.86121	139.39732	294.51959	378.28864	114.54304	327.27866	349.95615	119.46014	431.62054	236.94298	147.53905	405.56665	220.82048	222.95923	503.12952	247.93349	196.61674	356.34915	100.23856	203.59410	330.30811	101.61048	163.28720	396.19354	116.24928	106.77337
1317	5.26400	399.62302	1044.23059	317.93115	221.73175	987.51031	353.51547	341.52686	635.31183	391.93710	340.27634	574.13214	381.99826	266.36664	634.42706	381.91635	273.75333	574.67059	372.78049	320.01376	489.27148	365.22647	331.40421	489.45508	253.18153	386.12775	306.63428	365.45547	380.65268	260.78632	357.75809	324.90866	311.18591	367.64014	328.70227	263.27298	360.46960	340.05499	103.76589	323.95911	325.29102	117.10552	246.28989	408.74152	69.46633	293.99982	204.70247	54.24511	335.70557	176.22385	69.41505	280.06705	201.89392	58.17591	240.59370	396.85141	1033.93689	204.72327	225.49576	992.43243	149.24091	233.24561	611.02502	137.81445	210.79482	554.69440	150.14613	180.92302	630.43243	104.28409	150.40541	576.75049	109.66827	143.07579	508.01352	123.43919	125.73372	523.34369	237.45184	324.09930	418.94260	137.34744	352.22311	380.25742	139.39107	283.20682	377.70529	114.77557	315.36771	348.78326	119.59800	417.57245	233.61037	147.53845	391.26047	217.96027	222.91493	489.46011	242.77083	196.62852	339.25296	98.72420	203.25299	312.95175	100.88278	162.94511	379.76407	114.08417	106.50292
1318	5.26800	395.04559	1044.50513	317.09500	217.03540	987.61133	353.73306	338.53610	635.71692	391.69046	337.51373	574.55676	381.73401	263.41995	634.62469	381.86603	271.19070	574.99042	372.78391	317.71429	489.60831	364.90613	328.99136	489.78058	252.85077	384.66583	307.27545	365.21976	379.90771	261.58505	358.10757	323.50925	311.52560	367.40213	327.41388	263.55679	360.27975	339.62155	104.05913	323.77859	324.92853	117.25950	246.12218	408.94879	70.02248	293.99051	204.59317	54.20274	335.72479	176.53903	69.28658	280.53891	201.92924	58.18776	240.75587	391.60760	1034.20947	203.88567	220.08994	992.93591	149.52895	224.35510	610.81531	136.93816	202.17941	555.95300	149.66983	173.76559	631.89246	103.91193	141.58646	578.77148	109.88565	133.92929	509.94907	123.91497	117.31609	525.65399	237.89639	313.74814	417.50980	137.54684	340.44702	378.04303	139.60750	271.76138	377.00299	115.00613	303.42038	347.42612	119.74821	403.44778	230.19193	147.56639	377.42627	214.97745	222.90483	475.66812	237.47993	196.63773	322.00293	97.08620	202.92346	296.26782	99.94936	162.82396	362.60233	111.80066	106.28468
1319	5.27200	390.08545	1044.57849	316.20389	212.39836	987.73114	354.00983	335.62506	636.16870	391.38684	334.77847	574.93530	381.43991	260.36618	634.71698	381.74374	268.41040	575.15161	372.65906	315.30478	489.91876	364.55273	326.41315	490.01166	252.57986	383.38004	307.95334	365.20944	378.59946	262.15607	357.83304	322.00046	311.82648	367.22028	326.47675	263.95090	360.00665	339.21414	104.28559	323.57199	324.62247	117.42964	245.92390	408.85629	70.30664	293.87759	204.52641	54.16891	335.73026	176.41711	69.16935	280.53928	201.79630	58.12419	240.72290	386.33548	1034.51135	203.04468	214.61139	993.51611	149.71159	216.05273	612.77411	137.02519	193.78004	557.24481	149.30057	163.86134	633.40698	103.38207	133.03754	580.84515	110.17477	124.99033	511.81497	124.46495	109.04826	527.70734	238.34042	303.24329	415.90778	137.64645	329.17746	376.10522	139.69133	260.40988	376.19586	115.22736	291.53989	346.07162	119.87418	389.19922	226.65678	147.56036	363.44974	212.21481	222.78583	461.70465	232.12804	196.60809	304.57251	95.58402	202.56682	279.05231	99.11185	162.45662	345.54468	109.50762	105.94569
1320	5.27600	385.33197	1044.75061	315.37723	207.57448	987.85748	354.20724	332.72144	636.56030	391.15039	332.10620	575.34973	381.15259	257.51465	634.83942	381.70575	265.84918	575.23181	372.64984	312.98355	490.15643	364.24805	323.96878	490.31406	252.26730	381.82047	308.49042	364.77847	377.18073	262.57129	357.13974	320.65237	312.16788	366.81561	325.25015	264.27655	359.62411	338.76004	104.45984	323.40118	324.54059	117.49267	246.18068	408.71841	70.53107	293.79523	204.44576	54.12460	335.75293	176.29712	69.05289	280.57620	202.15695	57.44478	242.03670	380.99823	1034.76135	202.24203	209.17435	993.91339	149.83334	208.88689	613.94153	136.74286	185.48413	558.50739	148.84840	156.12102	634.96100	103.68073	124.43048	582.65503	110.45171	116.37287	513.62329	125.06557	101.02006	529.70337	238.79515	292.80829	414.07050	137.71136	318.00092	373.86050	139.78665	249.17068	375.35590	115.44612	279.60162	344.57333	120.03683	375.21082	223.14915	147.68140	348.08597	208.90982	222.72545	447.62744	226.69391	196.62328	287.12238	93.98665	202.23891	261.63672	98.36012	162.13429	327.41934	107.38610	105.48898
